<svg xmlns="http://www.w3.org/2000/svg" data-name="Layer 1" viewBox="0 0 400 225">
  <path d="M229.55 128.17a11.18 11.18 0 01-2.27-3.24c-.93-1.7-2.3-4.26-4-7.63-2.77-5.37-5.13-9.8-7.17-13.27a39 39 0 00-5.8-8l12.9-15.6 7.4-1.23v-6.63h-25v6.7l6.47 1.23-17.74 24.77V80.43l6.14-1.2V72.5h-29v6.7l6.5 1.23v40.9c0 6.47-.57 11.37-1.67 14.67a18.84 18.84 0 01-4.1 7.07 15.64 15.64 0 01-5.6 3.93l3.53 5.5q9.45-1.5 15.14-6.27a23.64 23.64 0 007.76-11.66q1.2-4.35 1.3-19.7l5.6-7a49.66 49.66 0 013.27 6c1.13 2.4 2.47 5.37 4 8.87 1.87 4.33 3.33 7.5 4.4 9.56s1.93 3.07 2.6 3.07h19.1v-6.27z" fill="#dfdfe1"/>
</svg>
